<?xml version="1.0" encoding="UTF-8"?>
<svg version="1.1" xmlns="http://www.w3.org/2000/svg" width="472" height="472">
<path d="M0 0 C10.38310519 7.70359417 15.92541814 17.23058308 18.54296875 29.88671875 C20.10008841 43.33850247 17.36339057 55.45515307 8.96052551 66.07583618 C3.52899812 72.39104909 -2.49365977 78.16334679 -8.40234375 84.02734375 C-9.86053654 85.48179848 -11.31828255 86.93670127 -12.77560425 88.39202881 C-16.59309323 92.20192571 -20.41654662 96.00578057 -24.24133301 99.80834961 C-28.13066016 103.6771906 -32.01431622 107.55171509 -35.8984375 111.42578125 C-42.16990669 117.67972568 -48.44477977 123.93022959 -54.72424316 130.17614746 C-57.97332023 133.40821489 -61.21787248 136.64470308 -64.45703125 139.88671875 C-67.79036458 143.22005208 -71.12369792 146.55338542 -74.45703125 149.88671875 C-75.3078125 150.76070312 -76.15859375 151.6346875 -77.03515625 152.53515625 C-85.70168757 160.9500786 -96.5777905 163.90160502 -108.45703125 163.88671875 C-116.62700043 163.13934062 -126.59787288 162.08205834 -132.45703125 155.88671875 C-133.38515625 155.30921875 -134.31328125 154.73171875 -135.26953125 154.13671875 C-138.96445163 151.52853966 -141.87403471 148.60550101 -144.45703125 144.88671875 C-144.45703125 144.22671875 -144.45703125 143.56671875 -144.45703125 142.88671875 C-145.11703125 142.88671875 -145.77703125 142.88671875 -146.45703125 142.88671875 C-154.29495294 129.64333382 -154.39001993 115.92339956 -150.85546875 101.41796875 C-147.44009046 91.04838647 -138.53649677 79.97351128 -129.45703125 73.88671875 C-126.35886387 73.17019121 -124.15727514 73.26720096 -121.0234375 73.6640625 C-116.52652937 74.05420521 -113.11045486 72.39800411 -109.45703125 69.88671875 C-105.21275655 66.00879198 -103.21094608 62.36849872 -102.64453125 56.63671875 C-102.60392578 55.42242187 -102.60392578 55.42242187 -102.5625 54.18359375 C-102.33763022 49.28642968 -101.07035865 47.12745093 -97.56738281 43.65649414 C-96.74272522 42.83206314 -95.91806763 42.00763214 -95.06842041 41.15821838 C-94.17056824 40.27585007 -93.27271606 39.39348175 -92.34765625 38.484375 C-91.42869568 37.56965927 -90.50973511 36.65494354 -89.56292725 35.71250916 C-87.11858681 33.27961381 -84.66538454 30.85584904 -82.21020508 28.43389893 C-79.72724704 25.98148889 -77.25261442 23.52071148 -74.77734375 21.06054688 C-70.36488957 16.67705492 -65.94497563 12.30117926 -61.51954651 7.93078613 C-59.83072415 6.2570692 -58.15296891 4.57374229 -56.48120117 2.88305664 C-41.02274787 -12.36284526 -17.10275097 -11.50636419 0 0 Z " fill="#FD9734" transform="translate(374.45703125,22.11328125)"/>
<path d="M0 0 C1.31080182 0.88908894 2.60185802 1.80777389 3.875 2.75 C5.00421875 3.57951172 5.00421875 3.57951172 6.15625 4.42578125 C16.24627867 12.54825433 20.47810982 24.27332366 22.15625 36.859375 C22.70802918 47.98692179 18.21214308 59.03963211 11.125 67.375 C7.41497203 71.39884613 3.39752391 74.68286277 -1.125 77.75 C-1.785 77.42 -2.445 77.09 -3.125 76.75 C-8.73538023 76.12434517 -13.72504471 76.15998227 -18.5234375 79.34375 C-22.63697433 82.955636 -26.16671245 87.27251547 -27.125 92.75 C-27.3100255 97.53015266 -27.3100255 97.53015266 -26.36256409 102.17248535 C-26.125 104.75 -26.125 104.75 -27.73521423 107.10192871 C-28.54825516 107.91069458 -29.36129608 108.71946045 -30.19897461 109.55273438 C-31.11420395 110.4771936 -32.02943329 111.40165283 -32.97239685 112.35412598 C-33.9901851 113.35120594 -35.00851473 114.34773353 -36.02734375 115.34375 C-37.06445335 116.37728088 -38.10045379 117.41192585 -39.13539124 118.44763184 C-41.31135321 120.6188976 -43.49702747 122.77971054 -45.69067383 124.93310547 C-48.48654021 127.67828691 -51.26253667 130.44251734 -54.03201962 133.2142868 C-56.17345838 135.35490443 -58.32267099 137.48757275 -60.47448921 139.61775208 C-61.49957312 140.63335877 -62.52291097 141.65073122 -63.54438591 142.66996765 C-74.82233596 153.89625473 -84.50437849 159.82460267 -100.74682617 159.94995117 C-104.54183428 159.93197203 -108.33143234 159.85714051 -112.125 159.75 C-112.125 159.09 -112.125 158.43 -112.125 157.75 C-113.135625 157.6675 -114.14625 157.585 -115.1875 157.5 C-119.50286916 156.90993932 -122.47238197 155.06083998 -126.125 152.75 C-126.125 152.09 -126.125 151.43 -126.125 150.75 C-127.00865234 150.34587891 -127.00865234 150.34587891 -127.91015625 149.93359375 C-136.93072841 145.11307635 -140.23015358 136.16384692 -143.4375 127 C-146.43441423 113.18565249 -143.82903772 100.48460034 -136.48928833 88.68005371 C-131.59621641 81.75784277 -124.95960656 76.03803164 -118.875 70.1875 C-116.66686782 68.03698175 -114.46306195 65.88213776 -112.26104736 63.72535706 C-110.89995757 62.39515412 -109.53455509 61.06934527 -108.16424561 59.74864197 C-105.68906453 57.3513474 -103.37365874 55.08329501 -101.30957031 52.31665039 C-100.91866211 51.79965576 -100.52775391 51.28266113 -100.125 50.75 C-99.465 50.75 -98.805 50.75 -98.125 50.75 C-97.856875 50.110625 -97.58875 49.47125 -97.3125 48.8125 C-96.125 46.75 -96.125 46.75 -93.125 45.75 C-92.4243242 44.43422052 -91.7619114 43.09780046 -91.125 41.75 C-89.57403564 39.92488098 -89.57403564 39.92488098 -87.72363281 38.04223633 C-87.02820374 37.33081985 -86.33277466 36.61940338 -85.61627197 35.88642883 C-84.86118347 35.12597763 -84.10609497 34.36552643 -83.328125 33.58203125 C-82.15029449 32.39065804 -82.15029449 32.39065804 -80.94866943 31.17521667 C-79.28021773 29.4922523 -77.60893502 27.81209052 -75.93505859 26.13452148 C-73.41379838 23.60147968 -70.91182332 21.05042007 -68.41015625 18.49804688 C-48.9168108 -1.19610357 -27.05566378 -15.58871253 0 0 Z " fill="#FD9734" transform="translate(220.125,172.25)"/>
<path d="M0 0 C1.99349638 0.24188053 3.98691745 0.48438836 5.98010254 0.7288208 C11.84549685 1.25551846 17.74374319 1.17320021 23.62911224 1.19923019 C26.09504262 1.21117074 28.56080944 1.23065959 31.02667236 1.25234985 C38.03204797 1.3134614 45.03740196 1.36786244 52.04296875 1.40136719 C56.34587798 1.42248679 60.64847882 1.45791851 64.95121002 1.50212479 C66.57600493 1.51614077 68.20085428 1.52497407 69.82570648 1.52817917 C85.06321333 1.56142069 99.86217492 2.80341012 111.73046875 13.44921875 C123.11492668 25.23726159 125.58342806 36.64591505 125.3359375 52.44921875 C124.8872439 63.52008442 119.80366799 72.2970245 112 80 C101.84063119 88.56365643 92.3825141 91.81660919 79.09590149 92.55441284 C78.35257956 92.59654022 77.60925763 92.6386676 76.84341079 92.68207157 C69.30156873 93.08097855 61.76684359 93.14125742 54.21557617 93.12939453 C52.72516843 93.13075492 51.23476103 93.13253838 49.74435425 93.13470459 C45.75500442 93.13920125 41.76568091 93.13752244 37.77633071 93.1343255 C33.57128954 93.13176356 29.36625038 93.13414977 25.16120911 93.13571167 C18.11015424 93.1375213 11.0591099 93.13515788 4.00805664 93.13037109 C-4.11443225 93.12492022 -12.23689606 93.126702 -20.35938436 93.1321975 C-27.37302228 93.13675054 -34.3866527 93.13736879 -41.40029162 93.13475883 C-45.57215612 93.13320944 -49.74400886 93.13296546 -53.91587257 93.13629532 C-57.83535169 93.13920643 -61.75479875 93.13713946 -65.67427444 93.13140106 C-67.10281127 93.13009117 -68.53135086 93.13043702 -69.95988655 93.13266373 C-78.3612954 93.14454166 -86.64007293 92.85564029 -95 92 C-93.50918512 88.88998414 -91.95124085 86.65653477 -89.56689453 84.14941406 C-88.86501007 83.40894836 -88.16312561 82.66848267 -87.43997192 81.90557861 C-84.2055262 78.55506232 -80.9622252 75.21382009 -77.70019531 71.89013672 C-75.98850253 70.13527838 -74.28944288 68.36800506 -72.60351562 66.58837891 C-70.16291229 64.01351372 -67.6847701 61.48068126 -65.1953125 58.953125 C-64.08363205 57.75795258 -64.08363205 57.75795258 -62.94949341 56.53863525 C-59.71474877 53.32836496 -57.49672865 51.2148977 -52.89251709 50.55383301 C-49.66748047 50.57714844 -49.66748047 50.57714844 -46.68014526 50.83636475 C-41.38408751 51.15971355 -38.11064471 48.72619077 -33.75 45.875 C-30.23938657 42.20481323 -28.82701871 38.99302888 -28 34 C-28.11900168 32.1647297 -28.26567594 30.33108027 -28.4375 28.5 C-28.6082497 24.59478905 -28.31009984 23.37791709 -25.78515625 20.30078125 C-23.27163654 18.0551823 -20.73022796 15.97453986 -18 14 C-17.01 14.495 -17.01 14.495 -16 15 C-16 16.32 -16 17.64 -16 19 C-14.35 18.34 -12.7 17.68 -11 17 C-11.495 15.515 -11.495 15.515 -12 14 C-12.99 13.505 -12.99 13.505 -14 13 C-13.62669176 10.27425729 -13.20805399 9.19177915 -11.15234375 7.296875 C-10.05599609 6.53117188 -10.05599609 6.53117188 -8.9375 5.75 C-7.83728516 4.96882812 -7.83728516 4.96882812 -6.71484375 4.171875 C-6.14894531 3.78515625 -5.58304687 3.3984375 -5 3 C-4.505 5.475 -4.505 5.475 -4 8 C-3.01 7.67 -2.02 7.34 -1 7 C-1.020625 6.030625 -1.04125 5.06125 -1.0625 4.0625 C-1 1 -1 1 0 0 Z " fill="#1BA8E2" transform="translate(264,239)"/>
<path d="M0 0 C1.82440669 0.00113032 3.64881519 0.00049102 5.47322083 -0.00177002 C10.39193711 -0.00291089 15.31025787 0.02049621 20.22888279 0.04852581 C25.38179546 0.07364467 30.53471865 0.0758897 35.68768311 0.08062744 C45.43030288 0.09302653 55.17274168 0.12580643 64.91528201 0.1660254 C76.01326792 0.21083885 87.11126277 0.23275418 98.20931673 0.25280714 C121.0247357 0.29454192 143.8399944 0.36483402 166.65527344 0.45410156 C165.144758 3.6088351 163.54489228 5.86550643 161.13037109 8.41235352 C160.40846588 9.17606766 159.68656067 9.9397818 158.94277954 10.72663879 C155.61848798 14.18020812 152.2828687 17.62203636 148.92822266 21.04614258 C147.1671087 22.85548177 145.41954787 24.67811528 143.68603516 26.51391602 C141.178176 29.16804707 138.62994925 31.77673122 136.06933594 34.37988281 C134.92484482 35.61560783 134.92484482 35.61560783 133.75723267 36.876297 C128.24538812 42.3480992 128.24538812 42.3480992 123.59588623 42.65805054 C120.41845703 42.33764648 120.41845703 42.33764648 117.49862671 41.76750183 C113.30738221 41.30553421 110.34170897 42.76559269 106.61621094 44.54394531 C104.65527344 45.45410156 104.65527344 45.45410156 102.65527344 45.45410156 C101.9849696 46.7856101 101.31920085 48.11940212 100.65527344 49.45410156 C100.10806641 50.53884766 100.10806641 50.53884766 99.54980469 51.64550781 C97.31181774 56.5496886 96.44055138 59.7726408 97.34277344 65.14160156 C98.05170967 69.85000825 98.05170967 69.85000825 96.17871094 72.70410156 C94.41719861 74.44455996 92.65331348 75.99418702 90.65527344 77.45410156 C90.04167969 77.11636719 89.42808594 76.77863281 88.79589844 76.43066406 C86.24960214 75.26903254 85.23384209 75.53318419 82.65527344 76.45410156 C83.97527344 78.10410156 85.29527344 79.75410156 86.65527344 81.45410156 C85.7041021 82.62661466 84.74410335 83.79197171 83.78027344 84.95410156 C83.24660156 85.60378906 82.71292969 86.25347656 82.16308594 86.92285156 C81.66550781 87.42816406 81.16792969 87.93347656 80.65527344 88.45410156 C79.99527344 88.45410156 79.33527344 88.45410156 78.65527344 88.45410156 C78.65527344 87.79410156 78.65527344 87.13410156 78.65527344 86.45410156 C77.00527344 86.45410156 75.35527344 86.45410156 73.65527344 86.45410156 C73.98527344 88.43410156 74.31527344 90.41410156 74.65527344 92.45410156 C63.25820673 92.39267109 51.86136488 92.31540833 40.46454239 92.21838665 C35.17152707 92.17381474 29.87858638 92.13453005 24.58544922 92.10766602 C19.46947593 92.08150098 14.35379193 92.04100665 9.23799896 91.9909153 C7.29419323 91.97433538 5.35033756 91.96276621 3.40647125 91.95648766 C-13.86744234 91.8950918 -28.34770087 90.33895356 -41.68457031 78.20019531 C-51.09377988 68.30392077 -54.36202939 56.9503033 -54.34472656 43.45410156 C-53.97018282 39.37003558 -53.26683276 35.44804348 -52.34472656 31.45410156 C-52.17199219 30.66132812 -51.99925781 29.86855469 -51.82128906 29.05175781 C-49.11481456 19.05186175 -41.69115424 12.26751081 -33.64160156 6.24316406 C-22.57289972 0.23668842 -12.24692952 -0.10702875 0 0 Z " fill="#1BA7E1" transform="translate(133.3447265625,13.5458984375)"/>
<path d="M0 0 C8.53875 -0.103125 17.0775 -0.20625 25.875 -0.3125 C28.55093262 -0.35802002 31.22686523 -0.40354004 33.98388672 -0.45043945 C36.13247427 -0.46505838 38.2810758 -0.47779572 40.4296875 -0.48828125 C42.06949585 -0.526651 42.06949585 -0.526651 43.74243164 -0.5657959 C51.75805642 -0.5703021 58.53437511 0.9986445 64.65011597 6.4785614 C69.66279554 12.12829426 70.50387128 17.67195291 70.38671875 24.98046875 C69.81579173 29.43831309 68.13479372 32.78271171 65 36 C62.828125 37.2109375 62.828125 37.2109375 61 38 C61 38.66 61 39.32 61 40 C61.59554687 40.11214844 62.19109375 40.22429687 62.8046875 40.33984375 C66.53148325 41.460535 68.71660728 43.92645965 71 47 C73.95359329 53.24130347 73.46084304 60.53826855 71.3515625 66.98046875 C68.80256111 72.27724688 64.19734327 75.48691336 59 78 C52.2741211 80.09955451 46.0772579 80.26300811 39.0625 80.1953125 C38.06798828 80.19329834 37.07347656 80.19128418 36.04882812 80.18920898 C32.36583789 80.17881617 28.68291387 80.15089406 25 80.125 C16.75 80.08375 8.5 80.0425 0 80 C0 53.6 0 27.2 0 0 Z M22 17 C21.97314588 19.31243792 21.95367159 21.6249627 21.9375 23.9375 C21.92589844 25.22527344 21.91429688 26.51304687 21.90234375 27.83984375 C21.63467451 30.86298403 21.63467451 30.86298403 23 32 C25.92952805 32.15418569 28.81919425 32.23173953 31.75 32.25 C32.96816406 32.2809375 32.96816406 32.2809375 34.2109375 32.3125 C38.99767973 32.34368399 42.09433046 32.07086994 46 29 C48.32483785 27.11624325 48.32483785 27.11624325 48.1875 24 C48.20079609 21.07613397 48.20079609 21.07613397 47 19 C46.34 19 45.68 19 45 19 C45 18.34 45 17.68 45 17 C38.32026118 15.7276688 28.15360983 13.92319509 22 17 Z M22 48 C22 52.95 22 57.9 22 63 C26.12504298 63.02686352 30.24991269 63.04677254 34.375 63.0625 C35.550625 63.07087891 36.72625 63.07925781 37.9375 63.08789062 C39.05898438 63.09111328 40.18046875 63.09433594 41.3359375 63.09765625 C42.37282715 63.10289307 43.4097168 63.10812988 44.47802734 63.11352539 C46.9959668 63.17140815 46.9959668 63.17140815 49 62 C50.08281398 57.98626097 50.63175431 54.26350861 48.75 50.5 C45.65987564 47.85132197 42.78838377 47.87983593 38.89453125 47.90234375 C37.42016602 47.90717773 37.42016602 47.90717773 35.91601562 47.91210938 C34.37977539 47.92467773 34.37977539 47.92467773 32.8125 47.9375 C31.77673828 47.94201172 30.74097656 47.94652344 29.67382812 47.95117188 C27.1158608 47.96295974 24.55792314 47.98089518 22 48 Z " fill="#3C3C3D" transform="translate(10,374)"/>
<path d="M0 0 C22.44 0 44.88 0 68 0 C68 15 68 15 65.8046875 18.80859375 C64.83789062 19.67613281 63.87109375 20.54367187 62.875 21.4375 C61.85557787 22.40623532 60.83863472 23.37758619 59.82421875 24.3515625 C58.42623047 25.66253906 58.42623047 25.66253906 57 27 C55.85388966 28.40428678 54.74133106 29.83770158 53.6875 31.3125 C51.45966898 34.4060025 49.07500137 37.27656911 46.5703125 40.1484375 C44.17065798 42.97788089 41.92858487 45.9253877 39.6640625 48.86328125 C37.50694418 51.63310219 35.2594332 54.31310647 33 57 C31.02 59.475 31.02 59.475 29 62 C49.295 62.495 49.295 62.495 70 63 C70 68.61 70 74.22 70 80 C46.57 80 23.14 80 -1 80 C-1 64 -1 64 3 58.625 C4.65598798 57.07186842 6.32246207 55.52983018 8 54 C9.28390515 52.48645328 10.53436013 50.94390274 11.75 49.375 C15.80936701 44.22772263 19.93974175 39.14141631 24.08105469 34.06005859 C28.41909642 28.73096393 32.70682702 23.36646623 37 18 C18.685 17.505 18.685 17.505 0 17 C0 11.39 0 5.78 0 0 Z " fill="#18A5E0" transform="translate(392,374)"/>
<path d="M0 0 C6.93 0 13.86 0 21 0 C21.33 13.86 21.66 27.72 22 42 C25.3 38.37 28.6 34.74 32 31 C34.31280476 28.97629583 36.63911659 26.96740284 39 25 C39.66 24.01 40.32 23.02 41 22 C43.52197266 21.65942383 43.52197266 21.65942383 46.6640625 21.70703125 C47.78554688 21.71669922 48.90703125 21.72636719 50.0625 21.73632812 C51.238125 21.76146484 52.41375 21.78660156 53.625 21.8125 C54.80835938 21.82603516 55.99171875 21.83957031 57.2109375 21.85351562 C60.14107539 21.88896084 63.07031459 21.93837231 66 22 C64.56845498 24.9679778 63.08624952 27.23455577 60.875 29.6875 C60.25625 30.37714844 59.6375 31.06679688 59 31.77734375 C58.34 32.51082031 57.68 33.24429688 57 34 C56.319375 34.78503906 55.63875 35.57007813 54.9375 36.37890625 C51.52358611 40.30361408 48.25021177 43.94516029 44 47 C45.05859195 50.27201149 46.37438568 52.57472882 48.625 55.125 C51 58 51 58 51 61 C51.66 61 52.32 61 53 61 C54.01567807 62.65715896 55.01005812 64.32733959 56 66 C57.15108257 67.51199207 58.31927361 69.01104188 59.5 70.5 C62.88219037 74.79360166 65.57163166 79.11252448 68 84 C63.70845978 84.0867562 59.41714332 84.1403089 55.125 84.1875 C53.29001953 84.22520508 53.29001953 84.22520508 51.41796875 84.26367188 C49.66806641 84.27817383 49.66806641 84.27817383 47.8828125 84.29296875 C46.80402832 84.3086792 45.72524414 84.32438965 44.61376953 84.34057617 C43.75122559 84.22818604 42.88868164 84.1157959 42 84 C40 81 40 81 40 78 C39.34 78 38.68 78 38 78 C36.62101957 76.30189246 35.32040522 74.53964541 34.0625 72.75 C33.37285156 71.77546875 32.68320312 70.8009375 31.97265625 69.796875 C31.32167969 68.87390625 30.67070312 67.9509375 30 67 C29.00567822 65.66242683 28.00807145 64.3272414 27 63 C24.33242394 64.58267671 22.3135445 65.80871231 21.49365234 68.92382812 C21.2834566 71.2129672 21.20556669 73.4505237 21.1875 75.75 C21.125625 78.4725 21.06375 81.195 21 84 C14.07 84 7.14 84 0 84 C-1.54996287 80.90007425 -1.07963253 77.64295619 -1.02172852 74.24560547 C-1.01212097 73.44552063 -1.00251343 72.64543579 -0.99261475 71.82110596 C-0.95956553 69.16971194 -0.91925583 66.51847966 -0.87890625 63.8671875 C-0.85461092 62.03159154 -0.83076707 60.19598955 -0.80735779 58.36038208 C-0.74445846 53.52371365 -0.67540841 48.68715162 -0.60510254 43.85058594 C-0.53447186 38.9173671 -0.46962341 33.98407268 -0.40429688 29.05078125 C-0.27520914 19.36710223 -0.13909326 9.68354048 0 0 Z " fill="#3E3E3F" transform="translate(279,370)"/>
<path d="M0 0 C6.27637248 4.82252349 10.75882826 11.69664948 12.02880859 19.57617188 C12.94813386 28.87461046 12.12726227 36.68195091 6.69921875 44.53125 C6.14234375 45.43875 5.58546875 46.34625 5.01171875 47.28125 C-3.88702074 55.93948301 -14.22669021 58.45242024 -26.30078125 58.53125 C-29.72718053 58.12919533 -32.97669103 57.44008366 -36.30078125 56.53125 C-37.63384468 56.1968389 -38.96709369 55.86316319 -40.30078125 55.53125 C-40.30078125 54.87125 -40.30078125 54.21125 -40.30078125 53.53125 C-41.00203125 53.304375 -41.70328125 53.0775 -42.42578125 52.84375 C-49.48187521 49.62248971 -52.90101473 45.05963452 -56.16015625 38.12109375 C-58.73400579 30.02051933 -58.86740656 20.2714956 -55.61328125 12.34375 C-53.60319838 8.66694362 -51.22286516 5.53023085 -48.30078125 2.53125 C-47.64078125 2.53125 -46.98078125 2.53125 -46.30078125 2.53125 C-45.97078125 1.54125 -45.64078125 0.55125 -45.30078125 -0.46875 C-43.15625 -1.8203125 -43.15625 -1.8203125 -40.48828125 -3.09375 C-39.61558594 -3.51914062 -38.74289063 -3.94453125 -37.84375 -4.3828125 C-25.42922019 -9.68425534 -11.0246159 -7.03778536 0 0 Z M-33.30078125 15.53125 C-36.69687437 20.62538968 -35.83997753 26.58644039 -35.30078125 32.53125 C-34.39095156 35.57672781 -33.73086556 36.28809525 -31.30078125 38.53125 C-25.96987183 40.88915225 -21.84174212 40.87180505 -16.30078125 39.53125 C-13.12215715 36.9612986 -11.59350016 35.40940673 -10.30078125 31.53125 C-10.18171265 29.74245198 -10.12556012 27.9489644 -10.11328125 26.15625 C-10.09910156 25.22039062 -10.08492187 24.28453125 -10.0703125 23.3203125 C-10.31983383 20.30068152 -10.90918773 18.21830722 -12.30078125 15.53125 C-19.84759033 10.056114 -25.70302687 10.31710484 -33.30078125 15.53125 Z " fill="#3C3C3D" transform="translate(188.30078125,397.46875)"/>
<path d="M0 0 C4.51850174 3.30589033 8.9206332 6.65613506 11 12 C11 12.99 11 13.98 11 15 C8.7536764 16.00904375 6.50356063 17.0073602 4.25 18 C3.61578125 18.28617187 2.9815625 18.57234375 2.328125 18.8671875 C-1.08417104 20.36006702 -3.20781917 21 -7 21 C-9.625 18.5625 -9.625 18.5625 -12 16 C-15.17664353 14.41167823 -18.54070868 14.58817961 -22 15 C-24.34261608 16.37926773 -24.34261608 16.37926773 -26 18 C-26.66 18 -27.32 18 -28 18 C-30.37105849 28.07930609 -30.37105849 28.07930609 -27.140625 37.51171875 C-24.88547824 40.45422188 -24.10115681 40.97771121 -20.3125 41.8125 C-15.87378378 42.26444201 -12.90412233 41.21999113 -9 39 C-7.07663031 36.97053147 -7.07663031 36.97053147 -6 35 C-0.08030998 36.75990784 5.41634992 39.39694605 11 42 C10.03360712 47.90794824 7.50928175 51.12693685 2.796875 54.64453125 C-7.05016126 61.00794619 -16.51264113 61.99152704 -28 60 C-31.23001593 58.99928954 -34.05812916 57.65480235 -37 56 C-37.721875 55.62746094 -38.44375 55.25492187 -39.1875 54.87109375 C-44.34589748 51.99794221 -46.47918905 49.321712 -49 44 C-49.556875 42.989375 -50.11375 41.97875 -50.6875 40.9375 C-54.11019449 33.27718376 -53.61419592 24.68637526 -50.91015625 16.8359375 C-46.77879797 7.79501495 -41.09252518 1.44449815 -31.875 -2.5 C-21.43230569 -5.77613939 -9.63813317 -5.39615543 0 0 Z " fill="#3C3C3D" transform="translate(259,395)"/>
<path d="M0 0 C7.26 0.33 14.52 0.66 22 1 C22 22.45 22 43.9 22 66 C22.66 66 23.32 66 24 66 C24 66.66 24 67.32 24 68 C26.97 68 29.94 68 33 68 C33 73.28 33 78.56 33 84 C26.10368974 86.7585241 18.74540174 87.29687998 11.484375 85.3125 C6.79315222 83.16384835 3.9427251 80.19115393 1 76 C-3.3598521 62.92044371 -1.15344695 45.98710242 -1.13037109 32.40429688 C-1.12494258 28.58459632 -1.13038022 24.7650098 -1.13671875 20.9453125 C-1.13605911 18.51822891 -1.13478033 16.09114538 -1.1328125 13.6640625 C-1.13483673 12.52152008 -1.13686096 11.37897766 -1.13894653 10.20181274 C-1.13579437 9.15246552 -1.13264221 8.10311829 -1.12939453 7.02197266 C-1.12859894 6.09760406 -1.12780334 5.17323547 -1.12698364 4.22085571 C-1 2 -1 2 0 0 Z " fill="#3C3C3E" transform="translate(94,369)"/>
<path d="M0 0 C11.55 0 23.1 0 35 0 C35 5.61 35 11.22 35 17 C31.93480318 18.53259841 28.73572458 18.1457475 25.375 18.125 C24.62677979 18.12306641 23.87855957 18.12113281 23.10766602 18.11914062 C15.37775718 18.06083225 7.70914394 17.55561398 0 17 C0 11.39 0 5.78 0 0 Z " fill="#18A3DE" transform="translate(349,412)"/>
<path d="M0 0 C0.66 0.226875 1.32 0.45375 2 0.6875 C3.66821323 0.36199498 5.33499557 0.02903937 7 -0.3125 C7.99 0.0175 8.98 0.3475 10 0.6875 C11.99961564 0.72670815 14.00049364 0.73193347 16 0.6875 C16 2.3375 16 3.9875 16 5.6875 C16.66 5.6875 17.32 5.6875 18 5.6875 C18 6.3475 18 7.0075 18 7.6875 C17.24976563 7.56890625 16.49953125 7.4503125 15.7265625 7.328125 C8.86237215 6.4636174 4.22845831 6.78556602 -2.0390625 9.77734375 C-4 10.6875 -4 10.6875 -6 10.6875 C-6.67030384 12.01900854 -7.33607258 13.35280056 -8 14.6875 C-8.36480469 15.41066406 -8.72960937 16.13382813 -9.10546875 16.87890625 C-11.3434557 21.78308703 -12.21472206 25.00603924 -11.3125 30.375 C-10.60356377 35.08340669 -10.60356377 35.08340669 -12.4765625 37.9375 C-14.23807483 39.67795839 -16.00195996 41.22758546 -18 42.6875 C-18.598125 42.378125 -19.19625 42.06875 -19.8125 41.75 C-22.08956772 40.58540296 -22.08956772 40.58540296 -25 39.6875 C-24.67 38.6975 -24.34 37.7075 -24 36.6875 C-23.34 36.6875 -22.68 36.6875 -22 36.6875 C-22.33 33.0575 -22.66 29.4275 -23 25.6875 C-22.34 25.6875 -21.68 25.6875 -21 25.6875 C-21.66 24.0375 -22.32 22.3875 -23 20.6875 C-19.63695446 16.43423652 -16.18131445 13.17192871 -12 9.6875 C-10.32932867 7.69084402 -8.66247014 5.69098966 -7 3.6875 C-2.6827254 -0.41917584 -2.6827254 -0.41917584 0 0 Z " fill="#66C4E9" transform="translate(242,48.3125)"/>
<path d="M0 0 C0.66 0.33 1.32 0.66 2 1 C2 2.32 2 3.64 2 5 C3.32 5.33 4.64 5.66 6 6 C5.21875 7.59505208 4.4375 9.19010417 3.65625 10.78515625 C2.80885136 13.15256826 2.80885136 13.15256826 3.28125 16.34375 C2.89117225 21.41476071 0.65493174 23.15711645 -3 26.4375 C-3.57234375 26.97826172 -4.1446875 27.51902344 -4.734375 28.07617188 C-6.14087906 29.40062987 -7.56844799 30.70265599 -9 32 C-9.33 31.01 -9.66 30.02 -10 29 C-10.66 29 -11.32 29 -12 29 C-11.855625 28.2265625 -11.71125 27.453125 -11.5625 26.65625 C-10.25526601 19.76128471 -10.25526601 19.76128471 -10.5 12.8125 C-9.68197349 6.57504786 -4.78915534 3.69449127 0 0 Z " fill="#69C5EA" transform="translate(246,253)"/>
<path d="M0 0 C0 0.66 0 1.32 0 2 C-0.81791016 2.22042969 -0.81791016 2.22042969 -1.65234375 2.4453125 C-11.34317091 5.32771237 -18.24273253 10.70235051 -24.875 18.1875 C-30.79797498 24.6898126 -36.88783366 30.98572439 -43.125 37.1875 C-43.93050293 37.98889404 -44.73600586 38.79028809 -45.56591797 39.6159668 C-47.70916738 41.74543979 -49.85446724 43.8728282 -52 46 C-54.25036607 48.23763216 -56.49722286 50.47637035 -58.6953125 52.765625 C-61.09581701 55.25795209 -62.67281523 56.89093841 -66 58 C-67.68215965 59.62168112 -67.68215965 59.62168112 -69.3125 61.625 C-69.92738281 62.346875 -70.54226562 63.06875 -71.17578125 63.8125 C-72.30224156 65.16328752 -73.42535345 66.5168852 -74.54296875 67.875 C-77.56035083 71.49909429 -80.70852296 74.5888476 -84.33984375 77.59765625 C-87.64486797 80.38942965 -90.58033536 83.55986391 -93.5625 86.6875 C-95.73641293 88.74993022 -97.33769821 89.76734864 -100 91 C-94.39951949 84.14845229 -88.10019958 78.02184818 -81.8125 71.8125 C-79.64941512 69.6761081 -77.48973995 67.5363513 -75.33203125 65.39453125 C-74.84136673 64.91216507 -74.35070221 64.42979889 -73.84516907 63.93281555 C-71.82602757 61.92814486 -69.97291103 59.96293801 -68.29174805 57.6628418 C-67.86547119 57.114104 -67.43919434 56.56536621 -67 56 C-66.34 56 -65.68 56 -65 56 C-64.731875 55.360625 -64.46375 54.72125 -64.1875 54.0625 C-63 52 -63 52 -60 51 C-59.2993242 49.68422052 -58.6369114 48.34780046 -58 47 C-56.44903564 45.17488098 -56.44903564 45.17488098 -54.59863281 43.29223633 C-53.90320374 42.58081985 -53.20777466 41.86940338 -52.49127197 41.13642883 C-51.73618347 40.37597763 -50.98109497 39.61552643 -50.203125 38.83203125 C-49.02529449 37.64065804 -49.02529449 37.64065804 -47.82366943 36.42521667 C-46.15521773 34.7422523 -44.48393502 33.06209052 -42.81005859 31.38452148 C-40.28879838 28.85147968 -37.78682332 26.30042007 -35.28515625 23.74804688 C-11.77221542 0 -11.77221542 0 0 0 Z " fill="#FC962B" transform="translate(187,167)"/>
<path d="M0 0 C0.99 0.99 0.99 0.99 2 2 C-4.57725481 9.9536695 -11.9854389 17.11208012 -19.2890625 24.38671875 C-20.679775 25.77556226 -22.07026399 27.16462962 -23.46054077 28.5539093 C-27.10268484 32.19225664 -30.7478202 35.82759236 -34.39361572 39.46228027 C-38.10016049 43.15858512 -41.80387127 46.85772719 -45.5078125 50.55664062 C-51.48917103 56.52923709 -57.47222863 62.50012492 -63.45759583 68.46870422 C-66.64091496 71.64329143 -69.8217383 74.82034735 -73 78 C-76.33333333 81.33333333 -79.66666667 84.66666667 -83 88 C-83.845625 88.87269531 -84.69125 89.74539062 -85.5625 90.64453125 C-90.41493007 95.33365838 -96.91211246 99.81831611 -103.8125 100.125 C-104.534375 100.08375 -105.25625 100.0425 -106 100 C-106 99.34 -106 98.68 -106 98 C-105.39414062 97.86464844 -104.78828125 97.72929687 -104.1640625 97.58984375 C-94.29451575 95.05412943 -87.20183409 89.97378669 -81 82 C-80.195625 81.360625 -79.39125 80.72125 -78.5625 80.0625 C-75.71371516 77.76957562 -73.60175701 75.24125683 -71.33203125 72.390625 C-70.89246094 71.93171875 -70.45289063 71.4728125 -70 71 C-69.34 71 -68.68 71 -68 71 C-67.505 69.515 -67.505 69.515 -67 68 C-65.3984375 66.45703125 -65.3984375 66.45703125 -63.375 64.8125 C-59.72739072 61.73258662 -56.6783465 58.42781618 -53.6015625 54.7890625 C-51.61225372 52.56685903 -49.35674359 50.81805934 -47 49 C-46.34 48.01 -45.68 47.02 -45 46 C-44.34 46 -43.68 46 -43 46 C-42.34 44.68 -41.68 43.36 -41 42 C-40.34 42 -39.68 42 -39 42 C-38.67 41.01 -38.34 40.02 -38 39 C-37.34 39 -36.68 39 -36 39 C-35.773125 38.443125 -35.54625 37.88625 -35.3125 37.3125 C-33.62449964 34.33840412 -31.53323483 32.27991135 -29 30 C-28.34 30 -27.68 30 -27 30 C-26.34 28.68 -25.68 27.36 -25 26 C-24.34 26 -23.68 26 -23 26 C-22.79375 25.46890625 -22.5875 24.9378125 -22.375 24.390625 C-20.42038808 20.99226564 -17.77876283 18.48944072 -15 15.75 C-14.4534375 15.19570312 -13.906875 14.64140625 -13.34375 14.0703125 C-9.2533867 10 -9.2533867 10 -7 10 C-6.773125 9.46375 -6.54625 8.9275 -6.3125 8.375 C-4.56617944 5.21499137 -2.3597151 2.7323017 0 0 Z " fill="#FD8E1F" transform="translate(383,84)"/>
<path d="M0 0 C6.6 0 13.2 0 20 0 C20.33 14.52 20.66 29.04 21 44 C21.66 44.33 22.32 44.66 23 45 C21.68 45.66 20.36 46.32 19 47 C19 31.82 19 16.64 19 1 C13.06 1 7.12 1 1 1 C1 27.73 1 54.46 1 82 C6.94 82 12.88 82 19 82 C18.855625 79.669375 18.71125 77.33875 18.5625 74.9375 C18.44178365 71.02662686 18.46080979 67.88378546 20.55859375 64.4453125 C22.29162957 62.76458158 23.98289778 61.32243691 26 60 C26.66 60.33 27.32 60.66 28 61 C24.25 65.875 24.25 65.875 22 67 C21.67 72.61 21.34 78.22 21 84 C14.07 84 7.14 84 0 84 C-1.54996287 80.90007425 -1.07963253 77.64295619 -1.02172852 74.24560547 C-1.01212097 73.44552063 -1.00251343 72.64543579 -0.99261475 71.82110596 C-0.95956553 69.16971194 -0.91925583 66.51847966 -0.87890625 63.8671875 C-0.85461092 62.03159154 -0.83076707 60.19598955 -0.80735779 58.36038208 C-0.74445846 53.52371365 -0.67540841 48.68715162 -0.60510254 43.85058594 C-0.53447186 38.9173671 -0.46962341 33.98407268 -0.40429688 29.05078125 C-0.27520914 19.36710223 -0.13909326 9.68354048 0 0 Z " fill="#141415" transform="translate(279,370)"/>
<path d="M0 0 C2.18359375 1.1875 2.18359375 1.1875 4 3 C4.53125 5.59375 4.53125 5.59375 4.5 8.5 C4.5103125 9.4590625 4.520625 10.418125 4.53125 11.40625 C4 14 4 14 2.1171875 15.78515625 C-0.44452315 17.25506771 -2.02506211 17.92916815 -5 18 C-10.54666667 14.90666667 -10.54666667 14.90666667 -12 12 C-12.49055907 7.66672826 -12.47744439 5.67999656 -9.9375 2.0625 C-6.27096589 -0.51187502 -4.39593437 -0.63940864 0 0 Z " fill="#FB932B" transform="translate(385,118)"/>
<path d="M0 0 C2.50063147 2.50063147 2.32420142 3.47811698 2.375 6.9375 C2.40335938 7.81277344 2.43171875 8.68804687 2.4609375 9.58984375 C2 12 2 12 0.3046875 13.8046875 C-2.43719182 15.22674694 -4.18094315 15.30864698 -7.25 15.1875 C-8.14203125 15.16042969 -9.0340625 15.13335937 -9.953125 15.10546875 C-10.62859375 15.07066406 -11.3040625 15.03585938 -12 15 C-13.87035965 11.2592807 -15.01838992 8.95627578 -14.9375 4.75 C-13.83679734 1.52127219 -12.96817831 0.6112968 -10 -1 C-6.26282712 -2.61944158 -3.65827763 -1.51102772 0 0 Z " fill="#FD912A" transform="translate(104,199)"/>
<path d="M0 0 C0 3.58912412 -0.66436554 4.10857029 -3 6.6875 C-3.556875 7.31011719 -4.11375 7.93273437 -4.6875 8.57421875 C-5.120625 9.04472656 -5.55375 9.51523437 -6 10 C-6.495 9.01 -6.495 9.01 -7 8 C-7.94875 8.33 -8.8975 8.66 -9.875 9 C-13.11555914 9.99307458 -15.52752701 9.87659071 -18.875 9.5 C-22.04889774 9.47157704 -23.49442784 9.60065701 -26.0078125 11.5859375 C-27.42877325 13.21864927 -28.80892437 14.88725256 -30.16015625 16.578125 C-33.90707956 21.24849472 -38.20665493 25.39830933 -42.4375 29.625 C-43.24380859 30.44339355 -44.05011719 31.26178711 -44.88085938 32.10498047 C-45.64076172 32.86697754 -46.40066406 33.62897461 -47.18359375 34.4140625 C-47.86993896 35.1045166 -48.55628418 35.7949707 -49.26342773 36.50634766 C-51 38 -51 38 -53 38 C-50.48232973 31.72964786 -44.61835827 26.93036032 -39.97265625 22.16259766 C-38.74588683 20.89270975 -37.53178975 19.61045025 -36.33105469 18.31591797 C-26.31864365 7.53014588 -26.31864365 7.53014588 -20.57885742 6.21777344 C-17.36328125 6.25 -17.36328125 6.25 -14.51293945 6.65625 C-9.43962543 7.35023874 -6.04509385 4.77826138 -2.0625 1.8125 C-1.381875 1.214375 -0.70125 0.61625 0 0 Z " fill="#23B0DF" transform="translate(232,283)"/>
<path d="M0 0 C15.61483303 -0.52307753 26.62726662 1.34628835 39.07421875 11.73046875 C47.32608318 19.55273503 50.27977524 28.17988811 53 39 C52.34 39 51.68 39 51 39 C50.67128906 37.85724609 50.67128906 37.85724609 50.3359375 36.69140625 C48.37654656 30.31143818 46.14871234 25.1168241 42.171875 19.7421875 C41 18 41 18 41 16 C40.34 16 39.68 16 39 16 C39 15.34 39 14.68 39 14 C38.42378906 13.73058594 37.84757812 13.46117187 37.25390625 13.18359375 C34.96541933 11.98184065 33.01873852 10.59133502 30.9375 9.0625 C21.84769596 2.93286241 10.73783793 1.77629504 0 2 C0 1.34 0 0.68 0 0 Z " fill="#FD8A1B" transform="translate(340,14)"/>
<path d="M0 0 C3.63 0 7.26 0 11 0 C11 0.33 11 0.66 11 1 C9.329375 1.2165625 9.329375 1.2165625 7.625 1.4375 C4.17857953 1.78372035 4.17857953 1.78372035 2 3 C2.33 7.62 2.66 12.24 3 17 C5.89640118 17.08120751 8.79050912 17.14059421 11.6875 17.1875 C12.50412109 17.21263672 13.32074219 17.23777344 14.16210938 17.26367188 C18.97545043 17.32213351 22.05803722 17.08670459 26 14 C27.32131818 12.90368631 27.32131818 12.90368631 27.125 10.1875 C27.02241728 7.57164058 26.76328117 5.4806638 26 3 C28.0625 4.5 28.0625 4.5 30 7 C30.32901449 9.86712629 29.97938773 12.28998963 29 15 C25.2069729 18.7930271 22.50603127 20.12593741 17.24609375 20.1328125 C16.30958984 20.13410156 15.37308594 20.13539063 14.40820312 20.13671875 C13.42787109 20.13285156 12.44753906 20.12898438 11.4375 20.125 C9.96120117 20.13080078 9.96120117 20.13080078 8.45507812 20.13671875 C7.51986328 20.13542969 6.58464844 20.13414062 5.62109375 20.1328125 C4.7592749 20.13168457 3.89745605 20.13055664 3.00952148 20.12939453 C1 20 1 20 0 19 C-0.08651611 17.58429877 -0.10704904 16.164405 -0.09765625 14.74609375 C-0.09443359 13.89208984 -0.09121094 13.03808594 -0.08789062 12.15820312 C-0.07951172 11.26037109 -0.07113281 10.36253906 -0.0625 9.4375 C-0.05798828 8.53580078 -0.05347656 7.63410156 -0.04882812 6.70507812 C-0.03700244 4.47002411 -0.01906638 2.23500398 0 0 Z " fill="#252526" transform="translate(30,388)"/>
<path d="M0 0 C1.9996441 0.03772913 4.00054061 0.04649906 6 0 C6 1.65 6 3.3 6 5 C6.66 5 7.32 5 8 5 C8 5.66 8 6.32 8 7 C7.24976563 6.88140625 6.49953125 6.7628125 5.7265625 6.640625 C-1.13762785 5.7761174 -5.77154169 6.09806602 -12.0390625 9.08984375 C-14 10 -14 10 -16 10 C-14.40128806 5.84334895 -11.38692539 2.8008925 -8 0 C-4.60394919 -1.13201694 -3.42254433 -0.71634649 0 0 Z " fill="#79CBEC" transform="translate(252,49)"/>
<path d="M0 0 C0.66 0.33 1.32 0.66 2 1 C2 2.32 2 3.64 2 5 C3.32 5.33 4.64 5.66 6 6 C5.505 7.010625 5.01 8.02125 4.5 9.0625 C3.19548423 12.03389703 3 13.39786665 3 16.8125 C3 17.864375 3 18.91625 3 20 C2.01 20.66 1.02 21.32 0 22 C-0.33 20.35 -0.66 18.7 -1 17 C-2.32 16.67 -3.64 16.34 -5 16 C-4.49228528 10.03435204 -2.61407872 5.36190101 0 0 Z " fill="#4BB9E5" transform="translate(246,253)"/>
<path d="M0 0 C0.99 0 1.98 0 3 0 C1.40128806 4.15665105 -1.61307461 7.1991075 -5 10 C-5.99 10.33 -6.98 10.66 -8 11 C-9.68215965 12.62168112 -9.68215965 12.62168112 -11.3125 14.625 C-11.92738281 15.346875 -12.54226562 16.06875 -13.17578125 16.8125 C-14.30224156 18.16328752 -15.42535345 19.5168852 -16.54296875 20.875 C-19.56035083 24.49909429 -22.70852296 27.5888476 -26.33984375 30.59765625 C-29.64486797 33.38942965 -32.58033536 36.55986391 -35.5625 39.6875 C-37.73641293 41.74993022 -39.33769821 42.76734864 -42 44 C-36.39951949 37.14845229 -30.10019958 31.02184818 -23.8125 24.8125 C-21.64941512 22.6761081 -19.48973995 20.5363513 -17.33203125 18.39453125 C-16.84136673 17.91216507 -16.35070221 17.42979889 -15.84516907 16.93281555 C-13.82602757 14.92814486 -11.97291103 12.96293801 -10.29174805 10.6628418 C-9.65233276 9.83973511 -9.65233276 9.83973511 -9 9 C-8.34 9 -7.68 9 -7 9 C-6.731875 8.360625 -6.46375 7.72125 -6.1875 7.0625 C-5 5 -5 5 -2 4 C-0.79117904 1.99983534 -0.79117904 1.99983534 0 0 Z " fill="#FE8B1B" transform="translate(129,214)"/>
<path d="M0 0 C2.52197266 -0.34057617 2.52197266 -0.34057617 5.6640625 -0.29296875 C6.78554688 -0.28330078 7.90703125 -0.27363281 9.0625 -0.26367188 C10.238125 -0.23853516 11.41375 -0.21339844 12.625 -0.1875 C13.80835938 -0.17396484 14.99171875 -0.16042969 16.2109375 -0.14648438 C19.14107539 -0.11103916 22.07031459 -0.06162769 25 0 C23.57046772 2.96695379 22.06179607 5.27796966 19.875 7.75 C19.33617187 8.36359375 18.79734375 8.9771875 18.2421875 9.609375 C17.83226562 10.06828125 17.42234375 10.5271875 17 11 C16.67 10.01 16.34 9.02 16 8 C17.65 6.35 19.3 4.7 21 3 C9.50295096 1.29081712 9.50295096 1.29081712 -1.32128906 4.37402344 C-5.81506978 8.06202278 -9.46223983 12.40794044 -13 17 C-13.66 16.67 -14.32 16.34 -15 16 C-11.48948335 11.65364605 -7.87898651 7.85792612 -3.515625 4.359375 C-1.74087049 2.8811002 -1.74087049 2.8811002 0 0 Z " fill="#1C1D20" transform="translate(320,392)"/>
<path d="M0 0 C7.26 0 14.52 0 22 0 C22 0.66 22 1.32 22 2 C15.4 2 8.8 2 2 2 C2 6.95 2 11.9 2 17 C7.61 17 13.22 17 19 17 C19 17.33 19 17.66 19 18 C9.595 18.495 9.595 18.495 0 19 C0 12.73 0 6.46 0 0 Z " fill="#18181C" transform="translate(30,420)"/>
<path d="M0 0 C0.74378906 0.5775 1.48757812 1.155 2.25390625 1.75 C9.98733887 7.19712138 16.53351192 8.75348423 26 8.6875 C26.9907251 8.68169922 27.9814502 8.67589844 29.00219727 8.66992188 C34.46694705 8.48787191 38.17296405 7.76162153 43 5 C43.66 5.33 44.32 5.66 45 6 C37.21380445 12.14699648 28.75312487 12.51249265 19.109375 11.5390625 C11.52990631 10.22503401 5.32239042 6.20344214 -1 2 C-0.67 1.34 -0.34 0.68 0 0 Z " fill="#302F32" transform="translate(215,444)"/>
<path d="M0 0 C5.35897579 4.899635 8.79154838 10.52668998 12 17 C7.70845978 17.0867562 3.41714332 17.1403089 -0.875 17.1875 C-2.70998047 17.22520508 -2.70998047 17.22520508 -4.58203125 17.26367188 C-6.33193359 17.27817383 -6.33193359 17.27817383 -8.1171875 17.29296875 C-9.73536377 17.31653442 -9.73536377 17.31653442 -11.38623047 17.34057617 C-12.24877441 17.22818604 -13.11131836 17.1157959 -14 17 C-14.66 16.01 -15.32 15.02 -16 14 C-15.67 13.01 -15.34 12.02 -15 11 C-14.40191528 11.7266687 -14.40191528 11.7266687 -13.79174805 12.46801758 C-11.5251036 14.40604645 -10.28370177 14.4177165 -7.33203125 14.51171875 C-6.43935547 14.54716797 -5.54667969 14.58261719 -4.62695312 14.61914062 C-3.69818359 14.64169922 -2.76941406 14.66425781 -1.8125 14.6875 C-0.87212891 14.72166016 0.06824219 14.75582031 1.03710938 14.79101562 C3.35795393 14.87348218 5.67842148 14.94263403 8 15 C7.4225 14.16855469 6.845 13.33710938 6.25 12.48046875 C5.5075 11.39378906 4.765 10.30710937 4 9.1875 C3.2575 8.10855469 2.515 7.02960938 1.75 5.91796875 C0 3 0 3 0 0 Z " fill="#222323" transform="translate(335,437)"/>
<path d="M0 0 C2.625 -0.1875 2.625 -0.1875 5 0 C5.08114106 1.77007714 5.13925505 3.54122098 5.1875 5.3125 C5.22230469 6.29863281 5.25710937 7.28476563 5.29296875 8.30078125 C5 11 5 11 3.48828125 12.85546875 C2.99714844 13.23316406 2.50601563 13.61085938 2 14 C1.401875 13.690625 0.80375 13.38125 0.1875 13.0625 C-2.08956772 11.89790296 -2.08956772 11.89790296 -5 11 C-4.67 10.01 -4.34 9.02 -4 8 C-3.34 8 -2.68 8 -2 8 C-2.04125 7.236875 -2.0825 6.47375 -2.125 5.6875 C-2 3 -2 3 0 0 Z " fill="#5EBFE4" transform="translate(222,77)"/>
<path d="M0 0 C0.33 0 0.66 0 1 0 C1 4.62 1 9.24 1 14 C-5.89631026 16.7585241 -13.25459826 17.29687998 -20.515625 15.3125 C-25.20527358 13.16456935 -27.99361405 10.13378068 -31 6 C-30.34 5.34 -29.68 4.68 -29 4 C-28.52949219 4.56589844 -28.05898437 5.13179688 -27.57421875 5.71484375 C-26.95160156 6.44832031 -26.32898438 7.18179687 -25.6875 7.9375 C-25.07261719 8.66839844 -24.45773438 9.39929688 -23.82421875 10.15234375 C-21.68085614 12.32324421 -20.04882714 12.94025424 -17.00708008 13.11352539 C-16.26868896 13.10828857 -15.53029785 13.10305176 -14.76953125 13.09765625 C-13.96708984 13.09443359 -13.16464844 13.09121094 -12.33789062 13.08789062 C-11.50451172 13.07951172 -10.67113281 13.07113281 -9.8125 13.0625 C-8.5450293 13.05573242 -8.5450293 13.05573242 -7.25195312 13.04882812 C-5.16793845 13.03705403 -3.08396023 13.0191189 -1 13 C-1.01160156 12.14535156 -1.02320312 11.29070312 -1.03515625 10.41015625 C-1.04417969 9.30542969 -1.05320312 8.20070313 -1.0625 7.0625 C-1.07410156 5.96035156 -1.08570312 4.85820312 -1.09765625 3.72265625 C-1 1 -1 1 0 0 Z " fill="#1F2021" transform="translate(126,439)"/>
<path d="M0 0 C0.99 0.66 1.98 1.32 3 2 C2.65066406 2.49628906 2.30132812 2.99257813 1.94140625 3.50390625 C-2.93064897 10.77748444 -3.34170011 16.50256595 -2 25 C-3.32 25.99 -4.64 26.98 -6 28 C-6.27767374 25.45868165 -6.52260763 22.92090278 -6.75 20.375 C-6.83121094 19.66214844 -6.91242188 18.94929688 -6.99609375 18.21484375 C-7.43726459 12.87177464 -6.41163855 10.32991135 -3 6 C-2.30177383 4.34630643 -1.62501395 2.68272986 -1 1 C-0.67 0.67 -0.34 0.34 0 0 Z " fill="#7AC9E9" transform="translate(233,59)"/>
<path d="M0 0 C0.66 0 1.32 0 2 0 C0.34763349 4.29067546 -2.8905207 7.1429553 -6.1015625 10.296875 C-6.69802582 10.89050842 -7.29448914 11.48414185 -7.9090271 12.09576416 C-9.8096981 13.98526627 -11.71721474 15.86768392 -13.625 17.75 C-14.91712468 19.03209065 -16.20879676 20.31463761 -17.5 21.59765625 C-20.66144479 24.73708432 -23.8290461 27.87017801 -27 31 C-27 25.98841746 -22.85042997 22.87169072 -19.5 19.4375 C-18.675 18.633125 -17.85 17.82875 -17 17 C-16.21625 16.195625 -15.4325 15.39125 -14.625 14.5625 C-12.62891312 12.613939 -10.63887752 10.84026833 -8.5 9.0625 C-6.12423992 7.06976007 -4.12089423 5.04887183 -2.1875 2.625 C-1.1046875 1.325625 -1.1046875 1.325625 0 0 Z " fill="#FC8E1F" transform="translate(176,291)"/>
<path d="M0 0 C3.625 0.375 3.625 0.375 7 1 C7.04241723 3.33294775 7.04092937 5.66702567 7 8 C6 9 6 9 3.0625 9.1875 C0 9 0 9 -2 7 C-2.25 4.5 -2.25 4.5 -2 2 C-1.34 1.34 -0.68 0.68 0 0 Z " fill="#F58E2B" transform="translate(345,155)"/>
<path d="M0 0 C5.23109321 0.74729903 8.59663426 2.47634577 12.1875 6.375 C15.28631752 10.86294261 16.29166574 14.55531288 16.3125 20 C16.32925781 21.010625 16.34601563 22.02125 16.36328125 23.0625 C15.95275089 26.38205734 14.89579443 28.27885971 13 31 C12 28 12 28 13 25 C13.40764133 19.49210205 13.60191386 13.97757435 11 9 C8.82769523 6.77297722 6.48011611 4.87251528 4 3 C3.195625 2.38125 2.39125 1.7625 1.5625 1.125 C1.046875 0.75375 0.53125 0.3825 0 0 Z " fill="#1E1E21" transform="translate(64,376)"/>
<path d="M0 0 C0.66 0.66 1.32 1.32 2 2 C-0.75828421 7.3543164 -4.63523153 12.7803383 -10.45703125 14.890625 C-12.63962811 15.37182746 -14.77954555 15.75328284 -17 16 C-14.31905115 13.1565694 -11.74334307 10.74838548 -8.5 8.5625 C-4.97093138 6.13771325 -2.60068624 3.38877298 0 0 Z " fill="#5BBFE8" transform="translate(240,282)"/>
<path d="M0 0 C2.4375 0.6875 2.4375 0.6875 5 2 C6 4.4375 6 4.4375 6 7 C4.875 8.875 4.875 8.875 3 10 C0.4375 10 0.4375 10 -2 9 C-3.3125 6.4375 -3.3125 6.4375 -4 4 C-2.68 2.68 -1.36 1.36 0 0 Z " fill="#F77320" transform="translate(336,165)"/>
<path d="M0 0 C0.66 0.33 1.32 0.66 2 1 C-1.75 5.875 -1.75 5.875 -4 7 C-4.33 12.61 -4.66 18.22 -5 24 C-11.6 23.67 -18.2 23.34 -25 23 C-25 22.67 -25 22.34 -25 22 C-19.06 22 -13.12 22 -7 22 C-7.144375 19.669375 -7.28875 17.33875 -7.4375 14.9375 C-7.55821635 11.02662686 -7.53919021 7.88378546 -5.44140625 4.4453125 C-3.70837043 2.76458158 -2.01710222 1.32243691 0 0 Z " fill="#252729" transform="translate(305,430)"/>
<path d="M0 0 C0 3.29328719 -0.7615544 4.97268853 -2 8 C-2.309375 9.216875 -2.61875 10.43375 -2.9375 11.6875 C-4 15 -4 15 -7 17 C-7 16.34 -7 15.68 -7 15 C-7.66 15 -8.32 15 -9 15 C-9.53583096 12.14223486 -9.78434148 10.74263197 -9 8 C-6.28686398 4.9589606 -3.23348751 2.47002518 0 0 Z " fill="#73C1E2" transform="translate(245,254)"/>
<path d="M0 0 C1.11375 0.556875 1.11375 0.556875 2.25 1.125 C2.25 3.105 2.25 5.085 2.25 7.125 C-0.10438733 8.55444945 -1.23032433 9.21161261 -4 8.75 C-4.5775 8.54375 -5.155 8.3375 -5.75 8.125 C-6.08 5.815 -6.41 3.505 -6.75 1.125 C-4.02098495 -0.69434337 -3.21400584 -1.02263822 0 0 Z " fill="#FB7716" transform="translate(360.75,144.875)"/>
<path d="M0 0 C2.5 0.25 2.5 0.25 4.5 2.25 C4.75 4.75 4.75 4.75 4.5 7.25 C2.5 9.25 2.5 9.25 0 9.5 C-2.5 9.25 -2.5 9.25 -4.5 7.25 C-4.75 4.75 -4.75 4.75 -4.5 2.25 C-2.5 0.25 -2.5 0.25 0 0 Z " fill="#FD8B22" transform="translate(124.5,179.75)"/>
<path d="M0 0 C0 3.99897642 -1.35316035 5.06701552 -4 8 C-5.63356951 9.37368345 -7.2925002 10.71937515 -9 12 C-7.94140805 15.27201149 -6.62561432 17.57472882 -4.375 20.125 C-2 23 -2 23 -2 26 C-1.34 26 -0.68 26 0 26 C0.66 27.98 1.32 29.96 2 32 C-3.46914639 27.04358608 -11.1114584 19.57315051 -12 12 C-10.08065216 9.70983534 -8.23652142 7.76718302 -6.0625 5.75 C-5.48564453 5.19570313 -4.90878906 4.64140625 -4.31445312 4.0703125 C-2.88722271 2.70205855 -1.44497942 1.3494962 0 0 Z " fill="#1A1C1E" transform="translate(332,405)"/>
<path d="M0 0 C1 1 1 1 1.125 4.5 C1 8 1 8 0 9 C-3 9.125 -3 9.125 -6 9 C-7 8 -7 8 -7.0625 4.4375 C-7.041875 3.303125 -7.02125 2.16875 -7 1 C-4.51588385 -0.24205807 -2.74800896 -0.14092354 0 0 Z " fill="#FA9230" transform="translate(117,190)"/>
<path d="M0 0 C5.90789791 0 8.90363653 3.1388406 13.046875 6.89453125 C15.85898483 9.92598565 17 11.84304859 17 16 C15.06767179 16.86580287 13.12892806 17.71729941 11.1875 18.5625 C10.10855469 19.03816406 9.02960938 19.51382812 7.91796875 20.00390625 C5 21 5 21 2 20 C3.62249941 19.16180842 5.24808497 18.3295884 6.875 17.5 C7.77992188 17.0359375 8.68484375 16.571875 9.6171875 16.09375 C12 15 12 15 14 15 C11.16467274 7.99507383 5.96864782 4.29742643 0 0 Z " fill="#1D1E20" transform="translate(253,394)"/>
<path d="M0 0 C0 0.66 0 1.32 0 2 C-0.81791016 2.22042969 -0.81791016 2.22042969 -1.65234375 2.4453125 C-11.83826896 5.47497231 -18.83820267 11.31131295 -26 19 C-26.99 18.67 -27.98 18.34 -29 18 C-22.13086518 10.17089292 -10.92042477 0 0 0 Z " fill="#FB921B" transform="translate(187,167)"/>
<path d="M0 0 C0.66 0.66 1.32 1.32 2 2 C1.44444444 6.55555556 1.44444444 6.55555556 0 8 C-3 8.125 -3 8.125 -6 8 C-7 7 -7 7 -7.0625 3.9375 C-7.041875 2.968125 -7.02125 1.99875 -7 1 C-4.48718205 -0.25640898 -2.78302919 -0.20872719 0 0 Z " fill="#FB962F" transform="translate(138,170)"/>
<path d="M0 0 C2.31 0.33 4.62 0.66 7 1 C7.6875 3.3125 7.6875 3.3125 8 6 C6.5625 7.8125 6.5625 7.8125 5 9 C3.02 8.34 1.04 7.68 -1 7 C-0.67 4.69 -0.34 2.38 0 0 Z " fill="#FB8C26" transform="translate(366,134)"/>
<path d="M0 0 C0 3.58912412 -0.66436554 4.10857029 -3 6.6875 C-3.556875 7.31011719 -4.11375 7.93273437 -4.6875 8.57421875 C-5.120625 9.04472656 -5.55375 9.51523437 -6 10 C-6.33 9.34 -6.66 8.68 -7 8 C-8.423125 8.495 -8.423125 8.495 -9.875 9 C-13.85902712 10.16843158 -17.54741761 10.08264982 -21.66796875 9.875 C-24.25561489 10.0137013 -25.78551169 10.6967609 -28 12 C-26.75 9.5 -26.75 9.5 -24 7 C-20.95936107 6.7440391 -18.02407254 6.88175977 -14.9765625 7.0078125 C-8.76981771 6.99152183 -4.59464641 4.03771958 0 0 Z " fill="#78CCED" transform="translate(232,283)"/>
<path d="M0 0 C0.33 0.99 0.66 1.98 1 3 C0.443125 3.21914063 -0.11375 3.43828125 -0.6875 3.6640625 C-11.99503747 8.36280273 -19.60867867 16.35693903 -28 25 C-28 22 -28 22 -26.20703125 19.9140625 C-25.41683594 19.15867187 -24.62664062 18.40328125 -23.8125 17.625 C-22.98492187 16.82835938 -22.15734375 16.03171875 -21.3046875 15.2109375 C-20.54414063 14.48132812 -19.78359375 13.75171875 -19 13 C-18.154375 12.0925 -17.30875 11.185 -16.4375 10.25 C-11.62321181 5.80604167 -5.89341519 2.79937222 0 0 Z " fill="#FD8317" transform="translate(334,15)"/>
<path d="M0 0 C3 0.125 3 0.125 4 1.125 C4.125 4.125 4.125 4.125 4 7.125 C3 8.125 3 8.125 0 8.25 C-3 8.125 -3 8.125 -4 7.125 C-4.125 4.125 -4.125 4.125 -4 1.125 C-3 0.125 -3 0.125 0 0 Z " fill="#24AAE4" transform="translate(199,106.875)"/>
<path d="M0 0 C1 1 1 1 1.0625 4.5625 C1.041875 5.696875 1.02125 6.83125 1 8 C-1.31 8 -3.62 8 -6 8 C-6.33 5.69 -6.66 3.38 -7 1 C-4.51588385 -0.24205807 -2.74800896 -0.14092354 0 0 Z " fill="#DA834E" transform="translate(329,176)"/>
<path d="M0 0 C0.04254356 1.99954746 0.04080783 4.00041636 0 6 C-1 7 -1 7 -4 7.125 C-7 7 -7 7 -8 6 C-8.04080783 4.00041636 -8.04254356 1.99954746 -8 0 C-5.13822943 -1.43088528 -3.06624227 -0.59991697 0 0 Z " fill="#E78944" transform="translate(150,160)"/>
<path d="M0 0 C1.99954746 -0.04254356 4.00041636 -0.04080783 6 0 C7 1 7 1 7.125 4 C7 7 7 7 6 8 C4.00041636 8.04080783 1.99954746 8.04254356 0 8 C-1.125 2.25 -1.125 2.25 0 0 Z " fill="#C78965" transform="translate(154,149)"/>
<path d="M0 0 C2.0625 1.5 2.0625 1.5 4 4 C4.32914519 6.86826521 4.12759704 9.33949453 3 12 C0.76364825 14.68738067 -0.97469668 15.86951974 -4.47094727 16.31445312 C-7.42824372 16.39405596 -10.35585771 16.34836558 -13.3125 16.25 C-14.85260742 16.22292969 -14.85260742 16.22292969 -16.42382812 16.1953125 C-18.95017885 16.14831063 -21.47460469 16.08262272 -24 16 C-23.67 15.34 -23.34 14.68 -23 14 C-21.75863281 14.03480469 -20.51726563 14.06960938 -19.23828125 14.10546875 C-17.59636774 14.13361584 -15.95443954 14.16091501 -14.3125 14.1875 C-13.49587891 14.21263672 -12.67925781 14.23777344 -11.83789062 14.26367188 C-7.02454957 14.32213351 -3.94196278 14.08670459 0 11 C1.32131818 9.90368631 1.32131818 9.90368631 1.125 7.1875 C1.02241728 4.57164058 0.76328117 2.4806638 0 0 Z " fill="#1B1B1C" transform="translate(56,391)"/>
<path d="M0 0 C0.86625 0.556875 0.86625 0.556875 1.75 1.125 C1.9375 3.5 1.9375 3.5 1.75 6.125 C-1.25 8.125 -1.25 8.125 -3.9375 7.75 C-4.700625 7.54375 -5.46375 7.3375 -6.25 7.125 C-6.25 5.145 -6.25 3.165 -6.25 1.125 C-2.80384615 -1.09038462 -2.80384615 -1.09038462 0 0 Z " fill="#19A6DE" transform="translate(276.25,228.875)"/>
<path d="M0 0 C1.99954746 -0.04254356 4.00041636 -0.04080783 6 0 C7 1 7 1 7.125 4 C7 7 7 7 6 8 C3.5625 8.1875 3.5625 8.1875 1 8 C0.34 7.34 -0.32 6.68 -1 6 C-0.625 2.875 -0.625 2.875 0 0 Z " fill="#20A5E2" transform="translate(185,118)"/>
<path d="M0 0 C1.2375 0.7425 1.2375 0.7425 2.5 1.5 C-1.25 2.625 -1.25 2.625 -3.5 1.5 C-8.4543766 1.0142768 -11.88079724 1.55222721 -16.0546875 4.14453125 C-18.61264904 6.54348437 -18.91365474 9.11222741 -19.5 12.5 C-20.16 12.5 -20.82 12.5 -21.5 12.5 C-21.11104749 7.05466487 -19.2851047 4.37313039 -15.5 0.5 C-10.85000995 -3.02757866 -5.01569946 -2.14958548 0 0 Z " fill="#1A1B1D" transform="translate(172.5,408.5)"/>
<path d="M0 0 C1.125 4.75 1.125 4.75 0 7 C-1.99954746 7.04254356 -4.00041636 7.04080783 -6 7 C-7 6 -7 6 -7.0625 2.9375 C-7.041875 1.968125 -7.02125 0.99875 -7 0 C-4.3333581 -1.33332095 -2.83319697 -0.67102033 0 0 Z " fill="#BE886A" transform="translate(319,188)"/>
<path d="M0 0 C0.66 0.33 1.32 0.66 2 1 C2.40729228 3.32156597 2.74438677 5.6568787 3 8 C1.68 8.33 0.36 8.66 -1 9 C-1 11.31 -1 13.62 -1 16 C-1.99 16.33 -2.98 16.66 -4 17 C-5.34244245 14.31511509 -4.52907533 12.78295056 -3.6796875 10.01953125 C-2.54337519 6.64324699 -1.28270846 3.323381 0 0 Z " fill="#59C0E8" transform="translate(246,253)"/>
<path d="M0 0 C2.97 0.495 2.97 0.495 6 1 C6.625 2.8125 6.625 2.8125 7 5 C6.01 6.485 6.01 6.485 5 8 C2.375 8.1875 2.375 8.1875 0 8 C-1.125 5.6875 -1.125 5.6875 -2 3 C-1.34 2.01 -0.68 1.02 0 0 Z " fill="#3BAAD3" transform="translate(303,197)"/>
<path d="M0 0 C0.99 0 1.98 0 3 0 C3.18433594 0.6290625 3.36867187 1.258125 3.55859375 1.90625 C6.25350581 9.85923492 10.81651522 15.23074101 18.28125 19.21875 C19.13203125 19.60546875 19.13203125 19.60546875 20 20 C19.67 20.66 19.34 21.32 19 22 C18.34 22 17.68 22 17 22 C17 21.34 17 20.68 17 20 C16.29875 19.773125 15.5975 19.54625 14.875 19.3125 C6.43642347 15.46010637 3.57759594 9.2716048 0 1 C0 0.67 0 0.34 0 0 Z " fill="#1E1F20" transform="translate(131,431)"/>
<path d="M0 0 C2.625 0.375 2.625 0.375 5 1 C6.125 5.75 6.125 5.75 5 8 C3.02 8 1.04 8 -1 8 C-1.625 5.125 -1.625 5.125 -2 2 C-1.34 1.34 -0.68 0.68 0 0 Z " fill="#22A2D8" transform="translate(176,128)"/>
<path d="M0 0 C2.375 -0.125 2.375 -0.125 5 0 C5.66 0.66 6.32 1.32 7 2 C6.625 4.625 6.625 4.625 6 7 C3.6875 7.6875 3.6875 7.6875 1 8 C-0.8125 6.5625 -0.8125 6.5625 -2 5 C-1.34 3.35 -0.68 1.7 0 0 Z " fill="#20A9E3" transform="translate(282,219)"/>
<path d="M0 0 C1.99954746 -0.04254356 4.00041636 -0.04080783 6 0 C7 1 7 1 7.1875 3.4375 C7 6 7 6 5 8 C2.375 7.625 2.375 7.625 0 7 C-1.125 2.25 -1.125 2.25 0 0 Z " fill="#1EA5DF" transform="translate(291,209)"/>
<path d="M0 0 C6.87450225 0.80876497 12.079479 5.40038254 17 10 C21 15.7037037 21 15.7037037 21 19 C20.34 19 19.68 19 19 19 C17.95703125 17.4609375 17.95703125 17.4609375 16.8125 15.375 C12.6631994 8.50005912 7.46221864 4.74122317 0 2 C0 1.34 0 0.68 0 0 Z " fill="#1E2324" transform="translate(177,393)"/>
<path d="M0 0 C2.625 0.375 2.625 0.375 5 1 C5.75 2.75 5.75 2.75 6 5 C4.0625 7.25 4.0625 7.25 2 9 C0.68 8.34 -0.64 7.68 -2 7 C-2.125 4.625 -2.125 4.625 -2 2 C-1.34 1.34 -0.68 0.68 0 0 Z " fill="#31ADDA" transform="translate(166,138)"/>
<path d="M0 0 C0.33 0.66 0.66 1.32 1 2 C-3.70732113 9.84553522 -10.4408882 13.95833217 -19 17 C-21.8125 17.125 -21.8125 17.125 -24 17 C-24 16.34 -24 15.68 -24 15 C-22.700625 14.79375 -21.40125 14.5875 -20.0625 14.375 C-11.24145638 12.39165214 -5.42552149 6.95579679 0 0 Z " fill="#1A1C1C" transform="translate(195,438)"/>
<path d="M0 0 C0.63164062 0.12117187 1.26328125 0.24234375 1.9140625 0.3671875 C9.58030696 1.80322753 17.27355151 2.93972824 25 4 C21.16910263 6.59606497 18.07089453 5.93811989 13.625 5.3125 C12.33851563 5.14363281 11.05203125 4.97476563 9.7265625 4.80078125 C6.05287089 4.01136114 3.2620577 2.83301384 0 1 C0 0.67 0 0.34 0 0 Z " fill="#FE931E" transform="translate(248,180)"/>
<path d="M0 0 C0 0.99 0 1.98 0 3 C-6.93 3 -13.86 3 -21 3 C-20.67 2.34 -20.34 1.68 -20 1 C-17.22922802 0.83225597 -14.45839073 0.66576064 -11.6875 0.5 C-10.90181641 0.45230469 -10.11613281 0.40460938 -9.30664062 0.35546875 C-8.54931641 0.31035156 -7.79199219 0.26523437 -7.01171875 0.21875 C-6.31522217 0.17685547 -5.61872559 0.13496094 -4.90112305 0.09179688 C-3.26903034 0.01299029 -1.63399421 0 0 0 Z " fill="#353539" transform="translate(52,437)"/>
<path d="M0 0 C0.66 0.33 1.32 0.66 2 1 C0.71937515 2.7074998 -0.61767557 4.37373596 -2 6 C-2.66 6 -3.32 6 -4 6 C-4.226875 6.556875 -4.45375 7.11375 -4.6875 7.6875 C-6.35896766 10.63246684 -8.55276352 12.68156544 -11 15 C-11.99 14.67 -12.98 14.34 -14 14 C-9.38 9.38 -4.76 4.76 0 0 Z " fill="#FEA51A" transform="translate(144,199)"/>
<path d="M0 0 C0.66 0.33 1.32 0.66 2 1 C0.52278578 4.45201639 -1.43794001 6.64961936 -4.125 9.25 C-4.84945312 9.95640625 -5.57390625 10.6628125 -6.3203125 11.390625 C-6.87460938 11.92171875 -7.42890625 12.4528125 -8 13 C-8.77734375 11.296875 -8.77734375 11.296875 -9 9 C-7.12890625 6.640625 -7.12890625 6.640625 -4.5625 4.25 C-3.71816406 3.45078125 -2.87382812 2.6515625 -2.00390625 1.828125 C-1.34261719 1.22484375 -0.68132812 0.6215625 0 0 Z " fill="#FEA536" transform="translate(239,102)"/>
<path d="M0 0 C0.66 0 1.32 0 2 0 C1.98839844 0.59167969 1.97679687 1.18335938 1.96484375 1.79296875 C1.91677614 6.00231785 1.93993117 9.8922333 3 14 C1.35 15.32 -0.3 16.64 -2 18 C-1.91621094 17.25234375 -1.83242187 16.5046875 -1.74609375 15.734375 C-1.64425781 14.74953125 -1.54242188 13.7646875 -1.4375 12.75 C-1.33308594 11.77546875 -1.22867188 10.8009375 -1.12109375 9.796875 C-0.85996777 7.07477776 -0.85996777 7.07477776 -1.59765625 4.828125 C-1.73042969 4.22484375 -1.86320313 3.6215625 -2 3 C-1.34 2.01 -0.68 1.02 0 0 Z " fill="#FFC278" transform="translate(191,263)"/>
<path d="M0 0 C0.99 0 1.98 0 3 0 C1.38829375 4.19043626 -1.53646186 7.23567378 -5 10 C-8.375 11.375 -8.375 11.375 -11 12 C-10.34 11.01 -9.68 10.02 -9 9 C-8.34 9 -7.68 9 -7 9 C-6.731875 8.360625 -6.46375 7.72125 -6.1875 7.0625 C-5 5 -5 5 -2 4 C-0.79117904 1.99983534 -0.79117904 1.99983534 0 0 Z " fill="#FE7818" transform="translate(129,214)"/>
<path d="M0 0 C0.66 0 1.32 0 2 0 C6.29020002 7.83065635 9.22938321 15.2401064 11 24 C10.34 24.33 9.68 24.66 9 25 C8.77957031 23.89205078 8.77957031 23.89205078 8.5546875 22.76171875 C7.02894229 15.86079069 4.8245842 10.25295158 1.20703125 4.1796875 C0 2 0 2 0 0 Z " fill="#FE8815" transform="translate(231,183)"/>
<path d="M0 0 C0.33 0.99 0.66 1.98 1 3 C-0.95238853 5.00612399 -2.91137822 7.00492433 -4.875 9 C-5.43058594 9.57234375 -5.98617188 10.1446875 -6.55859375 10.734375 C-8.00134404 12.19450782 -9.4974374 13.60149298 -11 15 C-11.66 15 -12.32 15 -13 15 C-11.38989473 10.92623969 -8.46177729 8.23492931 -5.375 5.25 C-4.859375 4.74339844 -4.34375 4.23679687 -3.8125 3.71484375 C-2.54616661 2.47196098 -1.2736856 1.23534724 0 0 Z " fill="#FD9125" transform="translate(304,39)"/>
<path d="M0 0 C1.9996441 0.03772913 4.00054061 0.04649906 6 0 C5.67 0.99 5.34 1.98 5 3 C1.04 3 -2.92 3 -7 3 C-7 2.01 -7 1.02 -7 0 C-4.29966295 -1.35016853 -2.93418878 -0.60017498 0 0 Z " fill="#68C5E9" transform="translate(252,49)"/>
<path d="M0 0 C2.27076842 -0.02699725 4.54162821 -0.04639453 6.8125 -0.0625 C8.07707031 -0.07410156 9.34164062 -0.08570313 10.64453125 -0.09765625 C14 0 14 0 17 1 C17 1.66 17 2.32 17 3 C11.39 2.67 5.78 2.34 0 2 C0 1.34 0 0.68 0 0 Z " fill="#1C1D1D" transform="translate(234,391)"/>
<path d="M0 0 C0.61875 0.66 1.2375 1.32 1.875 2 C5.90831691 6.05669845 10.50211453 9.48029545 15 13 C14.67 13.99 14.34 14.98 14 16 C13.62875 15.5875 13.2575 15.175 12.875 14.75 C10.94750353 12.84147428 10.94750353 12.84147428 8.125 11.1875 C4.58210463 8.70747324 2.52625078 6.49217019 0 3 C0 2.01 0 1.02 0 0 Z " fill="#FD9519" transform="translate(231,165)"/>
<path d="M0 0 C2.33944736 0.28730055 4.6739143 0.61936779 7 1 C7 3.31 7 5.62 7 8 C6.01 8 5.02 8 4 8 C4 6.35 4 4.7 4 3 C3.01 3 2.02 3 1 3 C0.67 3.66 0.34 4.32 0 5 C-0.66 5 -1.32 5 -2 5 C-1.125 1.125 -1.125 1.125 0 0 Z " fill="#FD951B" transform="translate(345,155)"/>
<path d="M0 0 C0.99 0.33 1.98 0.66 3 1 C1.61392377 2.46761013 0.21568805 3.92374189 -1.1875 5.375 C-1.96480469 6.18710937 -2.74210938 6.99921875 -3.54296875 7.8359375 C-5.987055 9.98859852 -7.92616557 11.00632706 -11 12 C-7.49102731 7.81576108 -3.91939465 3.80411834 0 0 Z " fill="#4CB3E1" transform="translate(203,295)"/>
<path d="M0 0 C1 3 1 3 0.0625 5.1875 C-0.4634375 6.0846875 -0.4634375 6.0846875 -1 7 C-3.4375 6.1875 -3.4375 6.1875 -6 5 C-6.33 4.01 -6.66 3.02 -7 2 C-4 0 -4 0 0 0 Z " fill="#F99736" transform="translate(339,168)"/>
<path d="M0 0 C0.97582031 0.56589844 1.95164063 1.13179688 2.95703125 1.71484375 C4.24210525 2.45587182 5.52726604 3.19674939 6.8125 3.9375 C7.77639648 4.49727539 7.77639648 4.49727539 8.75976562 5.06835938 C11.48316424 6.63466635 14.01108122 8.00369374 17 9 C16.67 9.66 16.34 10.32 16 11 C9.95916856 8.49697031 4.44628202 5.62096134 -1 2 C-0.67 1.34 -0.34 0.68 0 0 Z " fill="#17181C" transform="translate(215,444)"/>
<path d="M0 0 C0.66 0 1.32 0 2 0 C2.93402724 5.41735797 3.20808081 8.80451575 1 14 C0.34 14 -0.32 14 -1 14 C-0.67 9.38 -0.34 4.76 0 0 Z " fill="#262728" transform="translate(178,418)"/>
<path d="M0 0 C5.52706913 0.72724594 10.69960141 2.33445973 16 4 C16 4.66 16 5.32 16 6 C14.68 6.33 13.36 6.66 12 7 C12 6.34 12 5.68 12 5 C10.948125 4.896875 9.89625 4.79375 8.8125 4.6875 C5.12154134 4.02191729 3.00087519 3.18245468 0 1 C0 0.67 0 0.34 0 0 Z " fill="#FC951A" transform="translate(96,325)"/>
<path d="M0 0 C0.99 0.33 1.98 0.66 3 1 C3.33 2.98 3.66 4.96 4 7 C3.01 7.33 2.02 7.66 1 8 C0.01 7.34 -0.98 6.68 -2 6 C-2.1875 3.375 -2.1875 3.375 -2 1 C-1.34 0.67 -0.68 0.34 0 0 Z " fill="#FC9B2B" transform="translate(358,146)"/>
<path d="M0 0 C0.33 0.99 0.66 1.98 1 3 C-1.64 5.64 -4.28 8.28 -7 11 C-7.99 10.67 -8.98 10.34 -10 10 C-6.92118304 6.12948725 -3.99926986 2.97088618 0 0 Z " fill="#1799D7" transform="translate(97,22)"/>
<path d="M0 0 C0.66 0.33 1.32 0.66 2 1 C0.2620468 6.68784683 -3.21183258 8.80788839 -8 12 C-10.1875 11.625 -10.1875 11.625 -12 11 C-10.9275 10.443125 -9.855 9.88625 -8.75 9.3125 C-4.69684772 7.00696196 -2.0976684 4.19533681 0 0 Z " fill="#1D1D1D" transform="translate(79,439)"/>
<path d="M0 0 C-2.00844092 4.92980953 -5.64105074 8.09403383 -10 11 C-8.64763423 8.06120516 -7.10057341 5.70767089 -5 3.25 C-4.484375 2.63640625 -3.96875 2.0228125 -3.4375 1.390625 C-2 0 -2 0 0 0 Z " fill="#58BFE7" transform="translate(234,51)"/>
<path d="M0 0 C1.65 0.33 3.3 0.66 5 1 C4.55530671 6.03985731 2.28656638 8.37634988 -1 12 C-1.99 11.67 -2.98 11.34 -4 11 C-3.57847656 10.51789063 -3.15695312 10.03578125 -2.72265625 9.5390625 C-2.17480469 8.90742188 -1.62695312 8.27578125 -1.0625 7.625 C-0.51722656 6.99851562 0.02804687 6.37203125 0.58984375 5.7265625 C2.06958624 4.04367666 2.06958624 4.04367666 3 2 C2.01 1.67 1.02 1.34 0 1 C0 0.67 0 0.34 0 0 Z " fill="#1A1E1F" transform="translate(265,436)"/>
<path d="M0 0 C0.66 0.33 1.32 0.66 2 1 C1.49339844 1.90492188 1.49339844 1.90492188 0.9765625 2.828125 C0.53054687 3.62734375 0.08453125 4.4265625 -0.375 5.25 C-0.81585938 6.03890625 -1.25671875 6.8278125 -1.7109375 7.640625 C-2.85747823 9.73914197 -3.94649552 11.8536077 -5 14 C-5.66 13.67 -6.32 13.34 -7 13 C-2.96127563 3.40546697 -2.96127563 3.40546697 0 0 Z " fill="#222728" transform="translate(138,402)"/>
<path d="M0 0 C-2.56511246 2.56511246 -4.65788071 2.72368132 -8.125 3.4375 C-10.22082328 3.90475673 -10.22082328 3.90475673 -12 6 C-12.99 5.67 -13.98 5.34 -15 5 C-9.37743903 0.41317394 -7.11167844 -0.11470449 0 0 Z " fill="#1E1F20" transform="translate(245,407)"/>
<path d="M0 0 C1.32 0.33 2.64 0.66 4 1 C4.33 2.65 4.66 4.3 5 6 C2.525 7.485 2.525 7.485 0 9 C0 6.03 0 3.06 0 0 Z " fill="#81CDED" transform="translate(236,269)"/>
<path d="M0 0 C3.26285983 3.17222483 6.19413485 6.42010308 9 10 C9.66 10.66 10.32 11.32 11 12 C7.49138358 11.41781807 5.75070647 10.18286308 3.25 7.6875 C2.32960938 6.79611328 2.32960938 6.79611328 1.390625 5.88671875 C0 4 0 4 0 0 Z " fill="#FC891C" transform="translate(83,310)"/>
<path d="M0 0 C7.66742597 5.96583144 7.66742597 5.96583144 9 11 C8.01 11.495 8.01 11.495 7 12 C6.4225 10.9275 5.845 9.855 5.25 8.75 C3.51624176 5.6973471 1.6365092 3.35402607 -1 1 C-0.67 0.67 -0.34 0.34 0 0 Z " fill="#1B1B1B" transform="translate(73,414)"/>
<path d="M0 0 C0.70125 0.78375 1.4025 1.5675 2.125 2.375 C5.09157086 5.08360818 7.1582516 6.01722715 11 7 C10.67 7.66 10.34 8.32 10 9 C6.39755548 8.69121904 5.00654002 8.00552268 2.1875 5.625 C0 3 0 3 0 0 Z " fill="#1B1B1C" transform="translate(229,430)"/>
<path d="M0 0 C0.33 0.99 0.66 1.98 1 3 C-1.31 4.98 -3.62 6.96 -6 9 C-5.67 7.35 -5.34 5.7 -5 4 C-4.34 4 -3.68 4 -3 4 C-2.67 3.01 -2.34 2.02 -2 1 C-1.34 0.67 -0.68 0.34 0 0 Z " fill="#313233" transform="translate(145,396)"/>
<path d="M0 0 C0 0.66 0 1.32 0 2 C-1.2375 3.0828125 -1.2375 3.0828125 -2.5 4.1875 C-5.37232835 6.85143897 -5.37232835 6.85143897 -5.3125 10.8125 C-5.209375 11.864375 -5.10625 12.91625 -5 14 C-7 12 -7 12 -7.4375 8.6875 C-7 5 -7 5 -4.625 2.0625 C-2 0 -2 0 0 0 Z " fill="#FA901B" transform="translate(380,118)"/>
<path d="M0 0 C0.66 0 1.32 0 2 0 C2 0.99 2 1.98 2 3 C2.66 3 3.32 3 4 3 C4 3.66 4 4.32 4 5 C5.65 5 7.3 5 9 5 C9 5.66 9 6.32 9 7 C6.1875 7.25 6.1875 7.25 3 7 C1.125 5.1875 1.125 5.1875 0 3 C0 2.01 0 1.02 0 0 Z " fill="#1E1E1F" transform="translate(114,432)"/>
<path d="M0 0 C1 1 1 1 1.0625 4.5625 C1.041875 5.696875 1.02125 6.83125 1 8 C0.67 8 0.34 8 0 8 C-0.33 6.35 -0.66 4.7 -1 3 C-2.32 2.67 -3.64 2.34 -5 2 C-5.33 2.99 -5.66 3.98 -6 5 C-6.33 3.68 -6.66 2.36 -7 1 C-4.51588385 -0.24205807 -2.74800896 -0.14092354 0 0 Z " fill="#FB7518" transform="translate(117,190)"/>
<path d="M0 0 C0 0.99 0 1.98 0 3 C-1.65 2.67 -3.3 2.34 -5 2 C-5 3.65 -5 5.3 -5 7 C-5.66 7 -6.32 7 -7 7 C-7 5.02 -7 3.04 -7 1 C-4.53721199 -0.231394 -2.7204945 -0.07159196 0 0 Z " fill="#F28C27" transform="translate(138,170)"/>
<path d="M0 0 C0.33 0 0.66 0 1 0 C1 2.97 1 5.94 1 9 C-0.65 9 -2.3 9 -4 9 C-3.67 8.01 -3.34 7.02 -3 6 C-2.34 6 -1.68 6 -1 6 C-1.020625 5.195625 -1.04125 4.39125 -1.0625 3.5625 C-1 1 -1 1 0 0 Z " fill="#52B9E4" transform="translate(221,79)"/>
<path d="M0 0 C4.51478398 0.53115106 7.34666857 2.36620292 11 5 C8 6 8 6 5.95703125 5.22265625 C5.24933594 4.83980469 4.54164063 4.45695312 3.8125 4.0625 C3.09707031 3.68222656 2.38164062 3.30195313 1.64453125 2.91015625 C1.10183594 2.60980469 0.55914062 2.30945313 0 2 C0 1.34 0 0.68 0 0 Z " fill="#2A2A2C" transform="translate(177,393)"/>
<path d="M0 0 C0.66 0 1.32 0 2 0 C1.57630928 1.6286551 1.1355377 3.25287378 0.6875 4.875 C0.44386719 5.77992187 0.20023437 6.68484375 -0.05078125 7.6171875 C-1 10 -1 10 -4 12 C-3.33989524 9.15449988 -2.48275034 6.47674001 -1.4375 3.75 C-1.16808594 3.04359375 -0.89867187 2.3371875 -0.62109375 1.609375 C-0.41613281 1.07828125 -0.21117187 0.5471875 0 0 Z " fill="#FA891A" transform="translate(389,72)"/>
<path d="M0 0 C3.65316671 1.24976756 4.78065836 1.67098753 7 5 C7 5.99 7 6.98 7 8 C6.34 8 5.68 8 5 8 C3.98133771 6.34467377 2.98189187 4.67739862 2 3 C1.34 2.67 0.68 2.34 0 2 C0 1.34 0 0.68 0 0 Z " fill="#191A1A" transform="translate(55,421)"/>
<path d="M0 0 C5.67276511 -0.29341888 8.99067246 -0.00559652 14 3 C12.1875 3.625 12.1875 3.625 10 4 C9.01 3.34 8.02 2.68 7 2 C4.67612053 1.60612212 2.34206251 1.26513915 0 1 C0 0.67 0 0.34 0 0 Z " fill="#232325" transform="translate(161,407)"/>
<path d="M0 0 C0 3.54404336 -0.60989485 4.10267905 -2.875 6.6875 C-3.40867188 7.31011719 -3.94234375 7.93273437 -4.4921875 8.57421875 C-6 10 -6 10 -8 10 C-7.44449305 6.40094092 -6.25112752 5.00090201 -3.4375 2.75 C-2.79683594 2.22921875 -2.15617188 1.7084375 -1.49609375 1.171875 C-1.00238281 0.78515625 -0.50867188 0.3984375 0 0 Z " fill="#3CB3E5" transform="translate(258,242)"/>
<path d="M0 0 C0.99 0 1.98 0 3 0 C3 1.65 3 3.3 3 5 C1.35 4.67 -0.3 4.34 -2 4 C-1.34 2.68 -0.68 1.36 0 0 Z " fill="#FC9838" transform="translate(124,182)"/>
<path d="M0 0 C2.96404505 2.80804268 5.44499019 5.18315774 7 9 C6.01 9 5.02 9 4 9 C0 3.85714286 0 3.85714286 0 0 Z " fill="#141518" transform="translate(335,437)"/>
<path d="M0 0 C0.66 0 1.32 0 2 0 C1.67 2.97 1.34 5.94 1 9 C0.01 8.67 -0.98 8.34 -2 8 C-1.34 5.36 -0.68 2.72 0 0 Z " fill="#191A1A" transform="translate(198,426)"/>
<path d="M0 0 C0.99 0.66 1.98 1.32 3 2 C1.7260411 4.03833424 0.38938077 6.03852126 -1 8 C-1.66 8 -2.32 8 -3 8 C-1.125 1.125 -1.125 1.125 0 0 Z " fill="#85D0ED" transform="translate(233,59)"/>
<path d="M0 0 C0.66 0.66 1.32 1.32 2 2 C-1.465 4.97 -1.465 4.97 -5 8 C-3.95206337 3.80825346 -3.08236365 2.78407039 0 0 Z " fill="#14B8E3" transform="translate(178,320)"/>
<path d="M0 0 C0.33 0.99 0.66 1.98 1 3 C-0.65 4.65 -2.3 6.3 -4 8 C-4.66 7.67 -5.32 7.34 -6 7 C-4.02 4.69 -2.04 2.38 0 0 Z " fill="#16171A" transform="translate(311,401)"/>
<path d="M0 0 C0 0.66 0 1.32 0 2 C-5.41176471 6 -5.41176471 6 -8 6 C-6.72879117 2.18637351 -4.19078006 0 0 0 Z " fill="#FB9519" transform="translate(147,322)"/>
<path d="M0 0 C0.66 0.66 1.32 1.32 2 2 C-5.625 3.25 -5.625 3.25 -9 1 C-5.75778445 -0.08073852 -3.39597063 -0.21676408 0 0 Z " fill="#FEC78B" transform="translate(215,246)"/>
<path d="M0 0 C0.33 0.99 0.66 1.98 1 3 C-1.97 5.475 -1.97 5.475 -5 8 C-4.45773019 4.20411134 -2.79872437 2.52788007 0 0 Z " fill="#FE9D1C" transform="translate(154,189)"/>
<path d="M0 0 C0 0.66 0 1.32 0 2 C-2.97 2.66 -5.94 3.32 -9 4 C-9 3.34 -9 2.68 -9 2 C-5.62902617 0.50178941 -3.79557881 0 0 0 Z " fill="#FD9D18" transform="translate(187,167)"/>
<path d="M0 0 C5 7.5 5 7.5 5 10 C2 9 2 9 1.05078125 7.15234375 C0.80714844 6.42144531 0.56351563 5.69054687 0.3125 4.9375 C0.06113281 4.20402344 -0.19023437 3.47054688 -0.44921875 2.71484375 C-0.63097656 2.14894531 -0.81273437 1.58304687 -1 1 C-0.67 0.67 -0.34 0.34 0 0 Z " fill="#1B1C1E" transform="translate(209,433)"/>
<path d="M0 0 C0.99 0.33 1.98 0.66 3 1 C1.63016497 4.16115776 1.0109362 4.9927092 -2 7 C-1.125 2.25 -1.125 2.25 0 0 Z " fill="#FFB35F" transform="translate(191,274)"/>
<path d="M0 0 C2.4375 0.375 2.4375 0.375 5 1 C5.33 1.66 5.66 2.32 6 3 C5.01 4.32 4.02 5.64 3 7 C3 5.35 3 3.7 3 2 C2.01 1.67 1.02 1.34 0 1 C0 0.67 0 0.34 0 0 Z " fill="#C18A6B" transform="translate(314,187)"/>
<path d="" fill="#FFFFFF" transform="translate(0,0)"/>
<path d="" fill="#FFFF00" transform="translate(0,0)"/>
</svg>
